<?xml version="1.0" encoding="utf-8"?>
<!-- Generator: Adobe Illustrator 27.5.0, SVG Export Plug-In . SVG Version: 6.00 Build 0)  -->
<svg version="1.1" xmlns="http://www.w3.org/2000/svg" xmlns:xlink="http://www.w3.org/1999/xlink" x="0px" y="0px"
	 viewBox="125 0 750 500" style="enable-background:new 125 0 750 500;" xml:space="preserve">
<g id="BACKGROUND">
	<rect x="125" style="fill:#FFFFFF;" width="750" height="500"/>
</g>
<g id="OBJECTS">
	<g>
		<g>
			<path style="fill:#E4EFED;" d="M486.94,23.9c-34.95,3.78-67.35,20.67-89.93,46.4c-22.58,25.73-37.37,56.67-53.55,86.46
				c-16.18,29.79-34.67,59.52-62.35,80.22c-26.39,19.74-60.75,31.04-79.84,57.33c-19.66,27.07-17.51,65.13-0.05,93.53
				s47.97,47.86,80.49,58.9c32.52,11.03,67.28,14.45,101.69,17.09c111.68,8.54,226.94,9.17,332.22-27.39
				c37.88-13.16,76.33-33.2,94.29-67.63c17.87-34.26,11.23-76.65-8.44-110.01c-19.67-33.36-50.76-59.14-82.77-82.21
				c-32.02-23.07-65.81-44.32-93.81-71.73c-19.72-19.31-36.46-41.57-58.62-58.29C544.08,29.85,519.88,20.34,486.94,23.9z"/>
			<g>
				<g>
					<g>
						<path style="fill:#70A8C4;" d="M625.82,468.87c0.2-54.66,15.64-109.14,43.78-154.42c28.13-45.28,68.83-81.17,119.02-99.53
							c5.56,55.8-8.31,113.64-38.23,159.36C720.47,420,674.77,453.17,625.82,468.87z"/>
						<g>
							<path style="fill:none;stroke:#EAF8F9;stroke-linecap:round;stroke-miterlimit:10;" d="M779.57,229.8
								c-58.88,68.39-106.54,146.42-140.52,230.03"/>
							<path style="fill:none;stroke:#EAF8F9;stroke-linecap:round;stroke-miterlimit:10;" d="M749.67,266.46
								c-1.53-8.58-1.81-17.37-0.85-26.03"/>
							<path style="fill:none;stroke:#EAF8F9;stroke-linecap:round;stroke-miterlimit:10;" d="M734.22,287.55
								c14.39,2.16,29.06,2.42,43.52,0.76"/>
							<path style="fill:none;stroke:#EAF8F9;stroke-linecap:round;stroke-miterlimit:10;" d="M702.85,334.12
								c-5.91-13.61-10.01-28.01-12.15-42.69"/>
							<path style="fill:none;stroke:#EAF8F9;stroke-linecap:round;stroke-miterlimit:10;" d="M690.04,357.33
								c19.35,4.49,39.19,6.86,59.05,7.05"/>
							<path style="fill:none;stroke:#EAF8F9;stroke-linecap:round;stroke-miterlimit:10;" d="M668.16,396.28
								c-7.04-11.82-12.46-24.6-16.05-37.88"/>
						</g>
					</g>
					<g>
						<path style="fill:#82CED8;" d="M632.11,470.06c19.34-37.4,53.14-67.09,92.72-81.46c39.58-14.37,84.55-13.27,125.54,6.61
							C794.5,450.11,712.3,476.92,632.11,470.06z"/>
						<g>
							<path style="fill:none;stroke:#EAF8F9;stroke-linecap:round;stroke-miterlimit:10;" d="M832.86,398.88
								c-67.27,6.8-132.92,29.17-190.35,64.86"/>
							<path style="fill:none;stroke:#EAF8F9;stroke-linecap:round;stroke-miterlimit:10;" d="M790.5,404.97
								c2.95-6.63,6.67-12.91,11.05-18.69"/>
							<path style="fill:none;stroke:#EAF8F9;stroke-linecap:round;stroke-miterlimit:10;" d="M773.98,409.34
								c7.17,7.76,15.76,14.21,25.2,18.94"/>
							<path style="fill:none;stroke:#EAF8F9;stroke-linecap:round;stroke-miterlimit:10;" d="M739.54,418.87
								c0.16-11.24,2.66-22.44,7.28-32.69"/>
							<path style="fill:none;stroke:#EAF8F9;stroke-linecap:round;stroke-miterlimit:10;" d="M720.22,425.94
								c5.43,11.32,13.08,21.57,22.4,29.98"/>
							<path style="fill:none;stroke:#EAF8F9;stroke-linecap:round;stroke-miterlimit:10;" d="M692.91,436.57
								c-1.04-8.61-0.87-17.36,0.5-25.92"/>
							<path style="fill:none;stroke:#EAF8F9;stroke-linecap:round;stroke-miterlimit:10;" d="M672.83,446.9
								c7.5,6.65,16.65,11.42,26.39,13.77"/>
						</g>
					</g>
				</g>
				<g>
					<g>
						<path style="fill:#82CED8;" d="M469.05,461.34c3.85-55.82,7.63-112.55-4.82-167.16c-12.46-54.62-43.63-107.82-96.56-132.84
							c-21.53,54.97-34.8,115.22-21.72,172.65C359.02,391.42,403.34,444.85,469.05,461.34z"/>
						<g>
							<path style="fill:none;stroke:#EAF8F9;stroke-linecap:round;stroke-miterlimit:10;" d="M376.67,179.83
								c9.89,37.28,19.77,74.57,29.66,111.85c14.63,55.2,29.41,110.79,54.38,162.15"/>
							<path style="fill:none;stroke:#EAF8F9;stroke-linecap:round;stroke-miterlimit:10;" d="M410.17,200.44
								c-4.61,13.28-10.61,26.07-17.86,38.11"/>
							<path style="fill:none;stroke:#EAF8F9;stroke-linecap:round;stroke-miterlimit:10;" d="M398.47,262.23
								c-17.17,2.31-34.55,3.04-51.85,2.17"/>
							<path style="fill:none;stroke:#EAF8F9;stroke-linecap:round;stroke-miterlimit:10;" d="M414.9,321.84
								c16.25-13.1,30.34-28.87,41.53-46.49"/>
							<path style="fill:none;stroke:#EAF8F9;stroke-linecap:round;stroke-miterlimit:10;" d="M423.47,355.21
								c-17.37,4.88-35.86,5.7-53.6,2.38"/>
							<path style="fill:none;stroke:#EAF8F9;stroke-linecap:round;stroke-miterlimit:10;" d="M441.19,409.08
								c10.97-10.42,20.04-22.83,26.64-36.45"/>
						</g>
					</g>
					<g>
						<path style="fill:#70A8C4;" d="M447.72,462.96C391,372.03,282.99,315.65,175.96,321.09C187.12,374.88,223.1,423,271.54,448.9
							S379.98,478.02,447.72,462.96z"/>
						<g>
							<path style="fill:none;stroke:#EAF8F9;stroke-linecap:round;stroke-miterlimit:10;" d="M193.87,332.53
								c23.58,23.78,47.44,47.8,75.89,65.46c30.26,18.79,64.64,29.72,98.8,39.8c22.54,6.65,45.17,13.01,67.87,19.07"/>
							<path style="fill:none;stroke:#EAF8F9;stroke-linecap:round;stroke-miterlimit:10;" d="M234.46,371.5
								c3.12-13.74,4.48-27.88,4.03-41.96"/>
							<path style="fill:none;stroke:#EAF8F9;stroke-linecap:round;stroke-miterlimit:10;" d="M222.39,360.83
								c-7.03,3.89-14.51,6.98-22.24,9.16"/>
							<path style="fill:none;stroke:#EAF8F9;stroke-linecap:round;stroke-miterlimit:10;" d="M246.03,427.87
								c12.67-5.79,24.38-13.71,34.48-23.31"/>
							<path style="fill:none;stroke:#EAF8F9;stroke-linecap:round;stroke-miterlimit:10;" d="M307.29,416.96
								c3.21-20.16,4.56-40.62,4.04-61.03"/>
							<path style="fill:none;stroke:#EAF8F9;stroke-linecap:round;stroke-miterlimit:10;" d="M389.23,401.23
								c0.38,13.85-1.02,27.75-4.15,41.24"/>
							<path style="fill:none;stroke:#EAF8F9;stroke-linecap:round;stroke-miterlimit:10;" d="M375.12,440.08
								c-6.83,10.24-16.42,18.62-27.49,24.03"/>
						</g>
					</g>
				</g>
			</g>
			<g>
				<g>
					<defs>
						<path id="SVGID_1_" d="M486.94,23.9c-34.95,3.78-67.35,20.67-89.93,46.4c-22.58,25.73-37.37,56.67-53.55,86.46
							c-16.18,29.79-34.67,59.52-62.35,80.22c-26.39,19.74-60.75,31.04-79.84,57.33c-19.66,27.07-61.51,127.98-44.05,156.38
							s81.97,12.55,114.49,23.58s77.28-13.08,111.69-10.45c111.68,8.54,226.94,9.17,332.22-27.39
							c37.88-13.16,76.33-33.2,94.29-67.63c17.87-34.26,38.23-79.65,18.56-113.01c-19.67-33.36-77.76-56.14-109.77-79.21
							c-32.02-23.07-65.81-44.32-93.81-71.73c-19.72-19.31-36.46-41.57-58.62-58.29C544.08,29.85,519.88,20.34,486.94,23.9z"/>
					</defs>
					<clipPath id="SVGID_00000145772195767664364050000011023482104596696739_">
						<use xlink:href="#SVGID_1_"  style="overflow:visible;"/>
					</clipPath>
					<g style="clip-path:url(#SVGID_00000145772195767664364050000011023482104596696739_);">
						<g>
							<g>
								<path style="fill:#E8AA80;" d="M451.15,343.53c0,0-2.33,4.93-6,12.63c-7.3,15.34-19.89,41.65-29.86,61.83
									c-6.57,13.33-12,23.98-14.01,27.05c-6.55,10.03-171.94,0.75-171.94,0.75L228,412.57c0,0,119.17-11.58,122.4-13.78
									c1-0.68,5.06-10.22,10.16-23.04c5.33-13.35,11.79-30.27,17.17-44.49c6.11-16.14,10.8-28.8,10.8-28.8L451.15,343.53z"/>
								<path style="fill:#D68163;" d="M445.15,356.16c-7.3,15.34-19.89,41.65-29.86,61.83l-54.72-42.25
									c5.33-13.35,11.79-30.27,17.17-44.49L445.15,356.16z"/>
							</g>
							<path style="fill:#32B38E;" d="M458.38,290.12l-23.35-50.87c0,0-23.55,9.85-35.21,26.24
								c-11.66,16.39-42.96,102.48-42.96,102.48l73.93,33.81L458.38,290.12z"/>
							<g>
								<path style="fill:#E8AA80;" d="M249.03,441.01c-14.71,17.17-33.76,19.43-47.15,19.19c-7.13-0.13-12.91-4.07-5.73-10.85
									c0,0-5.73,0.23-12.09-2.09c-4.81-1.75-10.21-5.95-12.09-10.71c-1.66-4.2,0.02-8.91,1.86-13.03
									c3.43-7.7,7.45-15.14,12.01-22.24c3.01-4.68,6.76-9.56,12.19-10.76c5.13-1.13,10.29,1.33,14.96,3.73
									c9.47,4.85,35.67,18.28,38.19,20.59C253.27,416.75,244.01,433.98,249.03,441.01z"/>
								<g>
									<path style="fill:none;stroke:#CF5953;stroke-width:2;stroke-linecap:round;stroke-miterlimit:10;" d="M197.58,448.18
										c5.38-4.02,10.31-8.66,14.65-13.78"/>
									<path style="fill:none;stroke:#CF5953;stroke-width:2;stroke-linecap:round;stroke-miterlimit:10;" d="M206.33,439.54
										c-2.68-4.66-5.36-9.33-8.04-13.99"/>
									<path style="fill:none;stroke:#CF5953;stroke-width:2;stroke-linecap:round;stroke-miterlimit:10;" d="M203.19,435.2
										c-3.43-0.78-7.11-0.44-10.33,0.96"/>
								</g>
							</g>
						</g>
						<g>
							<g>
								<path style="fill:#E8AA80;" d="M573.52,236.06c0,0-33.31,42.59-63.91,43.64c-27.96,0.96-60.79-45.09-60.79-45.09
									s19.29-0.44,25.89-6.1c2.15-1.85,3.95-7.88,5.4-15.17c1.27-6.39,2.27-13.75,3-20.12c0.99-8.73,1.49-15.62,1.49-15.62
									l47.41-6.1c0,0,1.06,14.57,2.43,28.84c0.69,7.13,1.46,14.2,2.23,19.32c0.49,3.35,0.99,5.89,1.45,7.07
									C540.69,233.35,573.52,236.06,573.52,236.06z"/>
								<path style="fill:#D68163;" d="M536.66,219.67c-28.93,5.39-46.48-15.43-53.56-26.44c0.99-8.73,1.49-15.62,1.49-15.62
									l47.41-6.1c0,0,1.06,14.57,2.43,28.84C535.13,207.49,535.9,214.55,536.66,219.67z"/>
							</g>
							<g>
								
									<ellipse transform="matrix(0.9796 -0.2008 0.2008 0.9796 -19.6834 118.9811)" style="fill:#D68163;" cx="576.602" cy="156.508" rx="18.419" ry="15.449"/>
								<g>
									<path style="fill:#E8AA80;" d="M462.51,138.64c1.68-37.05,25.54-67.16,57.06-67.16s57.06,30.07,57.06,67.16
										s-23.74,68.65-47.47,71.34C497.84,213.53,460.76,177.24,462.51,138.64z"/>
									<path style="fill:#D68163;" d="M472.83,151.35c3.2-8.01,10.94-31.41,17.56-41.7c0,0,28.47,8.87,42.04,7.62
										c16.88-1.55,16.56-10.51,13.39-14.84l17.93,8.6l11.64,32.51l-4.61-47.72l-88.31-16.57l-18.35,44.57"/>
								</g>
								<path style="fill:none;stroke:#08183D;stroke-width:3;stroke-linecap:round;stroke-miterlimit:10;" d="M488.55,138.56
									c7.09-6.63,16.06-7.49,23.11-3.92"/>
								<path style="fill:none;stroke:#08183D;stroke-width:3;stroke-linecap:round;stroke-miterlimit:10;" d="M567.06,138.21
									c-7.29-6.41-16.28-7-23.22-3.22"/>
								<path style="fill:none;stroke:#CF5953;stroke-width:3;stroke-linecap:round;stroke-miterlimit:10;" d="M529.67,157.42
									c0.8,5.39,0,12.05-1.36,15.87"/>
								<path style="fill:none;stroke:#CF5953;stroke-width:3;stroke-linecap:round;stroke-miterlimit:10;" d="M509.3,178.56
									c3.97,4.44,13.63,7.47,19.01,7"/>
								<g>
									<g>
										<path style="fill:#08183D;" d="M579.45,122.51c-1.06,15.24-4.3,32.51-4.3,32.51c-1.58-18.52-3.09-33.56-7.71-47.19
											l-35.31-14.94c0,0,19.53,14.73,6.04,18.66c-13.83,4.03-49.62-8.86-49.62-8.86c-4.77,8.35-12.82,40.19-14.87,54.92
											c-1.06,7.6-17.71-8.03-17.43-2.06c0,0-19.71-52.96,7.89-84.06c0.07-0.07,0.14-0.16,0.21-0.23
											c13.44-15.01,32.12-20.3,55.22-19.35c37.74,0,55.36,26.11,59.24,53.05C579.65,110.86,579.84,116.79,579.45,122.51z"/>
									</g>
									<path style="fill:#1A3866;" d="M578.8,104.96c-5.54-11.01-13.59-20.84-23.45-28.4c-15.72-12.06-35.9-18.21-55.65-16.72
										c-12.47,0.94-24.7,4.93-35.36,11.43c13.44-15.01,32.12-20.3,55.22-19.35C557.3,51.91,574.91,78.02,578.8,104.96z"/>
								</g>
								<ellipse style="fill:#E8AA80;" cx="462.51" cy="159.74" rx="18.42" ry="15.45"/>
								<path style="fill:none;stroke:#2A334F;stroke-width:2;stroke-linecap:round;stroke-miterlimit:10;" d="M494.31,155.17
									c5.32,3.49,12.71,3.52,18.06,0.07"/>
								<path style="fill:none;stroke:#2A334F;stroke-width:2;stroke-linecap:round;stroke-miterlimit:10;" d="M543.85,154.76
									c5.44,3.34,12.99,2.77,17.87-1.35"/>
							</g>
						</g>
						<g>
							<g>
								<path style="fill:#E8AA80;" d="M780.94,364.89c0,0-118.02,92.03-144.47,95.28c-9.17,1.13-23.31-21.03-35.8-45.39
									c-11.68-22.79-18.92-45.49-18.92-45.49l43.73-62.16l4.36-6.19c0,0,0.41,1.15,1.14,3.18c4.05,11.27,18,49.69,26.52,69.1
									c3.05,6.95,5.41,11.45,6.37,11.42c4.15-0.14,94.46-37.12,94.46-37.12L780.94,364.89z"/>
								<path style="fill:#D68163;" d="M657.5,373.21l-56.83,41.57c-11.68-22.79-18.92-45.49-18.92-45.49l43.73-62.16l5.49-3.02
									C635.03,315.38,648.97,353.8,657.5,373.21z"/>
							</g>
							<path style="fill:#32B38E;" d="M552.79,284.72l20.74-49.3c0,0,26.16,8.29,37.82,24.68c11.66,16.39,49.23,106.66,49.23,106.66
								l-74.65,35.03L552.79,284.72z"/>
							<g>
								<path style="fill:#E8AA80;" d="M741.55,356.83c0,0,13.34-39.82,16.98-45.55c3.41-5.38,34.23-28.1,40.76-24.33
									c6.4,3.7-18.35,21.75-18.35,21.75s32.33-17.39,36.6-11.21c4.91,7.12-31.35,24.24-31.35,24.24s36.68-9.65,36.68-5.22
									c0,5.44-30.46,15.15-30.46,15.15s31.18-3.88,30.48,0.89c-0.98,6.66-31.34,10.01-31.34,10.01s-4.09,28.12-22.44,30.72
									L741.55,356.83z"/>
								<path style="fill:#E8AA80;stroke:#CF5953;stroke-width:2;stroke-linecap:round;stroke-miterlimit:10;" d="M754.35,331.07
									c6.96-7.99,14.61-15.37,22.86-22.03c1.14-0.92,2.32-1.84,3.72-2.29c1.4-0.45,3.06-0.33,4.13,0.67
									c0.99,0.92,1.28,2.4,1.08,3.73c-0.21,1.33-0.84,2.55-1.49,3.73c-2.87,5.26-6.09,10.33-9.52,15.71
									c3.02,7.56,2.14,16.56-2.3,23.38"/>
							</g>
						</g>
						<g>
							<g>
								<path style="fill:#3DC6A6;" d="M603.21,396.9c-3.31,42.18-7.48,76.83-7.48,76.83l-169.39,0.53c0,0-2.04-15.6-4.64-38.47
									c-6.56-57.48-16.75-160.91-7.4-178.63c12.38-23.46,52.39-26.15,52.39-26.15s40.43,44.33,42.35,43.5
									c4.37-1.89,33.97-46.17,33.97-46.17s47.75,5.76,57.45,24.58C610.53,272.42,607.6,341.21,603.21,396.9z"/>
								<path style="fill:#32B38E;" d="M603.21,396.9c-3.31,42.18-7.48,76.83-7.48,76.83l-169.39,0.53c0,0-2.04-15.6-4.64-38.47
									C511.57,464.39,578.28,418.42,603.21,396.9z"/>
							</g>
							<g>
								<g>
									<path style="fill:#32B38E;" d="M510.47,273.89c21.02-3.45,40.88,0.24,59.34,9.69c-1.04-3.66-2.87-9.15-3.91-12.81
										c-0.32-1.12-0.66-2.29-1.46-3.15c-1.18-1.28-3.07-1.58-4.81-1.75C543.88,264.33,527.74,266.93,510.47,273.89z"/>
									<path style="fill:#32B38E;" d="M506.06,273.17c-17.01-8.8-38.23-8.94-54.97-0.24c-1.54,4.21-2.54,8.63-2.95,13.1
										C465.3,276.6,485.07,271.96,506.06,273.17z"/>
								</g>
								<g>
									<path style="fill:#E0FFFD;" d="M508.9,274.56c13.26-14.36,22.87-28.73,29.21-50.5c0,0,15.37-2.75,20.82,7.93
										c2.29,4.49,12.41,45.6,12.41,45.6C551.95,268.01,530.74,268.74,508.9,274.56z"/>
									<path style="fill:#E0FFFD;" d="M476.03,224.06c0,0-14.38-3.78-20.05,8.16c-2.66,5.61-9.36,49.01-9.36,49.01
										c18.94-13.43,43.66-14.14,62.27-6.64C492.59,258.29,481.13,242.63,476.03,224.06z"/>
								</g>
							</g>
						</g>
					</g>
				</g>
			</g>
		</g>
		<g>
			<path style="fill:#A1A7BF;" d="M300.05,392.67c24.71-2.65,48.21-1.09,74.7-1.09c-1.48-16.25-1.31-42.64,0.5-58.86
				c-19.04-5.67-38.43-10.18-58.01-13.52C312.41,339.96,307.3,371.52,300.05,392.67z"/>
			<g>
				<g>
					<g>
						<path style="fill:#3D43AF;" d="M380.18,474.27l-42.7-0.56c0.13-1.37,0.31-2.65,0.55-3.84c1.1-5.85,3.18-9.67,4.33-13.29
							l4.42-2c0,0,5.75,2.16,19.04,6.04c9.24,2.69,12.71,6.39,13.94,9.25C380.84,472.39,380.18,474.27,380.18,474.27z"/>
						<path style="fill:#B8BFE6;" d="M380.18,474.27l-42.7-0.56c0.13-1.37,0.31-2.65,0.55-3.84h41.73
							C380.84,472.39,380.18,474.27,380.18,474.27z"/>
					</g>
					<g>
						<path style="fill:#3D43AF;" d="M283.91,474.27l42.7-0.56c-0.13-1.37-0.31-2.65-0.55-3.84c-1.1-5.85-3.18-9.67-4.33-13.29
							l-4.42-2c0,0-5.75,2.16-19.04,6.04c-9.24,2.69-12.71,6.39-13.94,9.25C283.25,472.39,283.91,474.27,283.91,474.27z"/>
						<path style="fill:#B8BFE6;" d="M283.91,474.27l42.7-0.56c-0.13-1.37-0.31-2.65-0.55-3.84h-41.73
							C283.25,472.39,283.91,474.27,283.91,474.27z"/>
					</g>
					<polygon style="fill:#08183D;" points="310.9,295.91 304.95,459.29 323.81,459.49 341.85,339.44 340.4,459.9 362.77,459.39 
						373.86,299.25 					"/>
				</g>
				<g>
					<path style="fill:#E1E8F5;" d="M363.98,247.38l2.65-17.1c0,0,7.36,3.11,10.1,7.72c4.12,6.93,14.31,42.18,14.31,42.18l31.9-1.98
						l2.65,23.1c0,0-37,12.62-43.55,9.85c-8.46-3.57-16.47-38.26-16.47-38.26L363.98,247.38z"/>
					<g>
						<path style="fill:#D68163;" d="M428.43,273.09c0,0,7.26-8.25,8.55-6.74c2.33,2.72-5.41,11.41-5.41,11.41L428.43,273.09z"/>
						<g>
							
								<rect x="381.463" y="262.794" transform="matrix(0.1003 -0.995 0.995 0.1003 87.6472 663.7755)" style="fill:#89512C;" width="58.772" height="41.262"/>
							
								<rect x="385.771" y="264.392" transform="matrix(0.1003 -0.995 0.995 0.1003 89.2998 662.5589)" style="fill:#F2F6FC;" width="50.462" height="35.021"/>
							<g>
								<path style="fill:#83A4DE;" d="M404.2,256.77l1.53-3.84c0.51-1.29,1.82-2.08,3.2-1.94l10.1,1.02
									c1.38,0.14,2.5,1.18,2.75,2.54l0.73,4.07L404.2,256.77z"/>
								<polygon style="fill:#83A4DE;" points="408.04,248.2 408.97,250.98 418.98,251.99 420.45,249.45 								"/>
							</g>
							<g>
								<g>
									
										<rect x="416.488" y="254.318" transform="matrix(0.1004 -0.9949 0.9949 0.1004 112.5584 651.8815)" style="fill:#CED6F2;" width="0.54" height="18.761"/>
									
										<rect x="416.271" y="256.446" transform="matrix(0.1004 -0.995 0.995 0.1004 110.2506 653.5836)" style="fill:#CED6F2;" width="0.54" height="18.761"/>
									
										<rect x="416.052" y="258.583" transform="matrix(0.1004 -0.995 0.995 0.1004 107.9322 655.2936)" style="fill:#CED6F2;" width="0.54" height="18.761"/>
									
										<rect x="415.845" y="260.712" transform="matrix(0.1004 -0.995 0.995 0.1004 105.6222 656.9984)" style="fill:#CED6F2;" width="0.54" height="18.761"/>
									
										<rect x="399.176" y="262.413" transform="matrix(0.1003 -0.995 0.995 0.1003 97.8662 639.4833)" style="fill:none;stroke:#CED6F2;stroke-width:0.5;stroke-miterlimit:10;" width="6.7" height="6.43"/>
								</g>
								<g>
									
										<rect x="413.605" y="262.162" transform="matrix(0.1003 -0.995 0.995 0.1003 100.287 657.7853)" style="fill:#CED6F2;" width="0.54" height="22.551"/>
									
										<rect x="411.461" y="262.165" transform="matrix(0.1004 -0.995 0.995 0.1004 96.4219 657.3886)" style="fill:#CED6F2;" width="0.54" height="26.421"/>
									
										<rect x="411.242" y="264.303" transform="matrix(0.1002 -0.995 0.995 0.1002 94.1757 659.159)" style="fill:#CED6F2;" width="0.54" height="26.421"/>
									
										<rect x="411.035" y="266.432" transform="matrix(0.1004 -0.9949 0.9949 0.1004 91.7885 660.7995)" style="fill:#CED6F2;" width="0.54" height="26.421"/>
								</g>
								<g>
									
										<rect x="411.452" y="281.337" transform="matrix(0.1004 -0.995 0.995 0.1004 79.2644 672.8878)" style="fill:#CED6F2;" width="0.54" height="22.551"/>
									
										<rect x="409.307" y="281.34" transform="matrix(0.1002 -0.995 0.995 0.1002 75.4835 672.5651)" style="fill:#CED6F2;" width="0.54" height="26.421"/>
									
										<rect x="409.099" y="283.479" transform="matrix(0.1004 -0.995 0.995 0.1004 73.0959 674.2184)" style="fill:#CED6F2;" width="0.54" height="26.421"/>
									
										<rect x="408.882" y="285.607" transform="matrix(0.1004 -0.995 0.995 0.1004 70.7784 675.9122)" style="fill:#CED6F2;" width="0.54" height="26.421"/>
								</g>
								<g>
									
										<rect x="414.495" y="274.088" transform="matrix(0.1004 -0.9949 0.9949 0.1004 91.095 667.6843)" style="fill:#CED6F2;" width="0.54" height="18.761"/>
									
										<rect x="414.278" y="276.216" transform="matrix(0.1002 -0.995 0.995 0.1002 88.865 669.4527)" style="fill:#CED6F2;" width="0.54" height="18.761"/>
									
										<rect x="414.059" y="278.354" transform="matrix(0.1002 -0.995 0.995 0.1002 86.5344 671.1531)" style="fill:#CED6F2;" width="0.54" height="18.761"/>
									
										<rect x="413.852" y="280.483" transform="matrix(0.1004 -0.995 0.995 0.1004 84.1589 672.8016)" style="fill:#CED6F2;" width="0.54" height="18.761"/>
									
										<rect x="397.193" y="282.184" transform="matrix(0.1003 -0.995 0.995 0.1003 76.4104 655.2986)" style="fill:none;stroke:#CED6F2;stroke-width:0.5;stroke-miterlimit:10;" width="6.7" height="6.43"/>
								</g>
							</g>
						</g>
						<g>
							<path style="fill:#E8AA80;" d="M428.75,276.75c1.66-1.17,3.4-2.23,5.22-3.17c0.53-0.28,1.12-0.55,1.73-0.48
								c0.72,0.08,1.3,0.67,1.47,1.32c0.18,0.65,0.01,1.34-0.28,1.96c-1.17,2.44-4.11,3.65-6.79,4.65c-1.26,0.47-2.92,0.85-3.79-0.1
								c-0.47-0.51-0.51-1.27-0.28-1.91C426.26,278.38,426.89,278.07,428.75,276.75z"/>
							<path style="fill:#E8AA80;" d="M428.75,280.97c1.66-1.17,3.4-2.23,5.22-3.17c0.53-0.28,1.12-0.55,1.73-0.48
								c0.72,0.08,1.3,0.67,1.47,1.32c0.18,0.65,0.01,1.34-0.28,1.96c-1.17,2.44-4.11,3.65-6.79,4.65c-1.26,0.47-2.92,0.85-3.79-0.1
								c-0.47-0.51-0.51-1.27-0.28-1.91C426.26,282.59,426.89,282.28,428.75,280.97z"/>
							<path style="fill:#E8AA80;" d="M428.75,285.18c1.66-1.17,3.4-2.23,5.22-3.17c0.53-0.28,1.12-0.55,1.73-0.48
								c0.72,0.08,1.3,0.67,1.47,1.32c0.18,0.65,0.01,1.34-0.28,1.96c-1.17,2.44-4.11,3.65-6.79,4.65c-1.26,0.47-2.92,0.85-3.79-0.1
								c-0.47-0.51-0.51-1.27-0.28-1.91C426.26,286.8,426.89,286.49,428.75,285.18z"/>
							<path style="fill:#E8AA80;" d="M428.75,289.4c1.66-1.17,3.4-2.23,5.22-3.17c0.53-0.28,1.12-0.55,1.73-0.48
								c0.72,0.08,1.3,0.67,1.47,1.32c0.18,0.65,0.01,1.34-0.28,1.96c-1.17,2.44-4.11,3.65-6.79,4.65c-1.26,0.47-2.92,0.85-3.79-0.1
								c-0.47-0.51-0.51-1.27-0.28-1.91C426.26,291.02,426.89,290.71,428.75,289.4z"/>
						</g>
					</g>
				</g>
				<g>
					<polyline style="fill:#3D43AF;" points="316.24,231.9 360.28,232.12 369.04,308.37 316.24,306.83 					"/>
					<g>
						<g>
							<g>
								<path style="fill:#E8AA80;" d="M360.73,228.29c0,0-16.98,16.77-18.88,16.86c-2.93,0.15-27.63-13.07-27.63-13.07
									s7.65-4.48,10.08-6.57c1.58-1.36,2.62-8.82,3.1-13.01c0.37-3.22,0.55-5.76,0.55-5.76l17.48-2.25c0,0,1.44,15.84,1.72,17.75
									c0.18,1.24,0.37,2.17,0.54,2.61C348.63,227.28,360.73,228.29,360.73,228.29z"/>
								<path style="fill:#D68163;" d="M347.14,222.24c-10.66,1.99-17.13-5.69-19.74-9.75c0.37-3.22,0.55-5.76,0.55-5.76l17.48-2.25
									c0,0,0.39,5.37,0.9,10.63C346.58,217.75,346.86,220.36,347.14,222.24z"/>
							</g>
							<g>
								<g>
									<path style="fill:#D68163;" d="M357.382,194.297c3.121-0.993,6.365,0.446,7.246,3.214s-0.935,5.817-4.056,6.81
										c-3.121,0.993-6.365-0.446-7.246-3.214C352.445,198.339,354.261,195.29,357.382,194.297z"/>
									<g>
										<path style="fill:#E8AA80;" d="M322.42,193.21c0-12.67,8.19-22.94,18.29-22.94s17.62,10.29,18.29,22.94
											c0.65,12.2-3.24,23.7-14.76,24.45C331.94,217.66,322.42,205.87,322.42,193.21z"/>
										<path style="fill:#D68163;" d="M327.1,198.89c2.78-3.28,4.66-7.42,5.37-11.8c1.45-0.49,2.61-1.85,3.03-3.03
											c6.37,3.57,14.18,4.1,20.79,1.44c1.67,3.31,2.56,7.06,2.65,10.93c0.28-5.27,0.3-10.55,0.1-15.87
											c-9.41-1.41-18.86-2.56-28.58-3.3C329.56,184.12,328.67,190.98,327.1,198.89z"/>
									</g>
									<g>
										<path style="fill:#89512C;" d="M361.37,182.7c-0.25,0.25-0.53,0.46-0.84,0.63c0.55,5.77-0.05,11.82-1.72,16.75
											c0.26-5.22-0.13-10.13-1.57-15.61c-4.8,1.96-17.26,1.23-23.1-3.32c0.04,1.12-0.98,3.8-2.64,4.06
											c-0.51,6.5-2.58,11.25-5.2,16.64c-1.78-0.66-3.57-1.32-5.48-2.23c-1.09-3.64-2.18-7.31-2.5-11.11
											c-0.32-3.8,0.19-7.79,2.11-11.01c1.92-3.22,5.42-5.51,8.99-5.18c0.6-1.44,1.5-2.72,2.61-3.8l0,0
											c2.62-2.57,6.39-4.06,10.06-4.11c5.22-0.07,10.21,2.29,14.63,5.24c2.31,1.54,4.61,3.38,5.71,6.03
											C363.37,178.01,363.06,181.07,361.37,182.7z"/>
										<path style="fill:#A16337;" d="M361.37,182.7c0.43-2.43-1.99-8.46-6.45-11.16c-3.03-1.84-8.77-3.99-13.49-4.42
											c-3.18-0.29-6.48,0.13-9.42,1.42c2.62-2.57,6.39-4.06,10.06-4.11c5.22-0.07,10.21,2.29,14.63,5.24
											c2.31,1.54,4.61,3.38,5.71,6.03C363.37,178.01,363.06,181.07,361.37,182.7z"/>
									</g>
									<ellipse style="fill:#E8AA80;" cx="324.48" cy="200.41" rx="6.26" ry="5.28"/>
								</g>
								<g>
									<path style="fill:none;stroke:#89512C;stroke-linecap:round;stroke-miterlimit:10;" d="M333.3,193.39
										c2.27-2.26,5.15-2.56,7.41-1.34"/>
									<path style="fill:none;stroke:#89512C;stroke-linecap:round;stroke-miterlimit:10;" d="M356.55,192.37
										c-1.94-2-4.19-1.98-5.86-0.52"/>
									<ellipse style="fill:#2A334F;" cx="340.54" cy="199.3" rx="1.1" ry="1.43"/>
									<ellipse style="fill:#2A334F;" cx="353.62" cy="198.15" rx="1.1" ry="1.43"/>
									<path style="fill:none;stroke:#CF5953;stroke-linecap:round;stroke-linejoin:round;stroke-miterlimit:10;" d="
										M348.82,198.15c-0.21,1.4,0.32,2.91,1.43,3.93c-0.42,0.86-1.05,1.61-1.8,2.15"/>
									<path style="fill:none;stroke:#CF5953;stroke-linecap:round;stroke-linejoin:round;stroke-miterlimit:10;" d="M347.23,209
										c0,0-2.72,0.62-6.5-2.05"/>
								</g>
							</g>
						</g>
						<path style="fill:#5766C9;" d="M341.85,245.15l6.6-20.07l8.04,2.84l2.23,16.9C349.86,242.81,348.67,242.85,341.85,245.15z"/>
						<path style="fill:#5766C9;" d="M317.69,228.94l6.9-4.39l17.27,20.61c-6.17-0.39-13.52,0.18-17.67,3.05L317.69,228.94z"/>
					</g>
				</g>
				<g>
					<g>
						<g>
							<path style="fill:#08183D;" d="M234.999,240.219l-54.155-32.561c-1.366-0.822-1.808-2.595-0.987-3.962l41.77-69.472
								c0.822-1.366,2.595-1.808,3.962-0.987l54.155,32.561c1.366,0.822,1.808,2.595,0.986,3.962l-41.77,69.472
								C238.139,240.599,236.365,241.04,234.999,240.219z"/>
							
								<rect x="198.737" y="146.994" transform="matrix(0.857 0.5153 -0.5153 0.857 129.1447 -91.9678)" style="fill:none;stroke:#174F6B;stroke-width:0.75;stroke-miterlimit:10;" width="63.113" height="79.468"/>
						</g>
						<g>
							<g id="XMLID_54_">
								<g id="XMLID_118_">
									<path id="XMLID_121_" style="fill:#174F6B;" d="M240.811,225.721c-0.199,0.158-0.422,0.302-0.638,0.445
										c-0.636,0.42-1.349,0.741-2.067,0.866c-0.58,0.111-1.16,0.092-1.704-0.106c-1.424-0.539-2.123-2.143-2.564-3.637
										c-0.494-1.707-0.825-3.471-0.996-5.262c-0.086-0.906-0.137-1.848-0.559-2.626c-0.423-0.778-1.175-1.289-1.896-1.787
										c-1.798-1.236-3.59-1.919-4.944-3.937c-0.777-1.14-0.556-2.372-0.393-3.399c0.147-0.914,0.548-1.766,0.994-2.604
										c0.053-0.11,0.113-0.21,0.166-0.32c5.592-10.512,12.109-20.539,19.446-29.911c0.584-0.755,1.74-1.153,2.652-0.973
										c0.143,0.021,0.28,0.065,0.4,0.124c0.319,0.14,0.579,0.4,0.813,0.67c2.291,2.535,3.725,5.609,3.993,9.626
										c0.288,4.125,0.136,6.401-0.23,9.777c-0.489,4.628-1.493,9.348-2.748,13.975c-0.157,0.552-0.321,1.107-0.494,1.676
										c-0.938,2.922-2.224,5.894-3.474,8.642c-0.122,0.257-0.239,0.516-0.361,0.773
										C244.885,220.642,243.343,223.757,240.811,225.721L240.811,225.721z"/>
								</g>
								<g id="XMLID_114_">
									<path id="XMLID_117_" style="fill:#174F6B;" d="M218.39,198.631c-0.067,0.089-0.121,0.179-0.182,0.259
										c-0.547,0.79-1.117,1.566-1.866,2.131c-0.829,0.633-1.816,1.399-3.177,1.253c-2.429-0.251-3.868-1.511-5.801-2.524
										c-0.778-0.403-1.575-0.818-2.467-0.837c-0.885-0.008-1.742,0.389-2.582,0.738c-1.652,0.694-3.375,1.224-5.114,1.588
										c-1.534,0.313-3.269,0.454-4.415-0.559c-0.961-0.856-1.216-2.323-1.098-3.687c0.011-0.181,0.04-0.358,0.076-0.536
										c0.001-0.077,0.022-0.155,0.029-0.222c0.547-3.158,2.575-5.981,4.526-8.533c0.17-0.228,0.344-0.453,0.513-0.681
										c2.2-2.849,4.648-5.893,7.262-8.338c0.51-0.47,1.015-0.942,1.525-1.412c3.04-2.764,6.223-5.346,9.52-7.575
										c2.81-1.906,4.748-3.109,8.527-4.789c3.674-1.646,7.071-1.816,10.375-0.987c0.353,0.083,0.692,0.189,0.977,0.406
										c0.316,0.242,0.565,0.618,0.714,1.05c0.222,0.658,0.234,1.428-0.035,2.036C230.842,178.299,225.048,188.767,218.39,198.631
										z"/>
								</g>
								<g id="XMLID_51_">
									<g id="XMLID_85_">
										<path id="XMLID_86_" style="fill:#F9ADA7;" d="M248.123,184.536c0.199,0.068,0.399,0.136,0.594,0.202
											C248.535,184.629,248.335,184.573,248.123,184.536z"/>
										<path id="XMLID_90_" style="fill:#4B90A0;" d="M243.89,212.223c-0.398-0.55-0.636-1.255-1.1-1.716
											c0.399,0.137,0.799,0.293,1.21,0.398c0.325,0.086,0.676,0.141,1.026,0.054c0.351-0.087,0.712-0.329,0.876-0.689
											c-0.451,0.512-1.161,0.602-1.732,0.459c-0.571-0.143-1.068-0.461-1.628-0.623c-0.603-0.175-1.255-0.172-1.915-0.155
											c0.151-0.11,0.299-0.228,0.436-0.358c0.667-0.634,1.078-1.512,1.465-2.36c-0.35,0.333-0.593,0.769-0.877,1.167
											c-0.456,0.638-1.04,1.167-1.678,1.559c-0.619,0.003-1.222-0.043-1.764-0.265c-1.372-2.765-3.573-3.623-4.687-4.235
											c-1.044-0.576-1.567-1.718-1.846-2.973c0.865,0.442,1.8,0.746,2.781,0.909c0.584,0.099,1.192,0.147,1.731,0.374
											c0.645,0.278,1.15,0.801,1.642,1.323c-0.034-0.505-0.363-0.865-0.701-1.158c-0.387-0.33-0.813-0.605-1.267-0.833
											c0.978-0.188,1.949-0.659,2.919-1.007c0.969,0.053,1.841,0.635,2.229,1.547c0.171,0.407,0.265,0.878,0.548,1.196
											c0.209,0.236,0.509,0.364,0.8,0.474c0.463,0.181,0.933,0.341,1.411,0.486c-0.909-0.326-1.892-0.723-2.256-1.674
											c-0.104-0.27-0.154-0.565-0.259-0.835c-0.287-0.722-0.951-1.121-1.616-1.463c0.272-0.063,0.541-0.121,0.816-0.136
											c0.682-0.043,1.333,0.096,1.976,0.237c0.574,0.125,1.157,0.249,1.679,0.505c-0.749-0.528-1.686-0.709-2.602-0.872
											c0.228-0.109,0.456-0.217,0.687-0.331c0.075-0.039,0.152-0.07,0.228-0.109c0.604-0.29,1.204-0.576,1.808-0.866
											c0.391-0.185,0.815-0.383,1.198-0.295c-0.511-0.242-1.155,0.094-1.722,0.368c-1.118,0.531-2.283,0.814-3.445,1.092
											l0.027,0.009c-0.45,0.014-0.904,0.11-1.355,0.233c-0.349,0.094-0.696,0.196-1.046,0.302
											c0.291-0.245,0.608-0.449,0.902-0.7c1.388-1.184,1.986-3.14,3.214-4.523c-0.491,0.449-0.93,0.974-1.293,1.545
											c-0.34,0.533-0.619,1.116-1.015,1.602c-0.903,1.113-2.258,1.605-3.325,2.515c-0.514,0.131-1.026,0.237-1.534,0.281
											c-0.676-0.206-1.39-0.325-2.048-0.572c-0.483-0.18-0.944-0.451-1.292-0.835c-0.017-0.166-0.039-0.334-0.049-0.502
											c-0.179-2.113-0.361-4.253-0.147-6.447c0.202-2.097,0.669-4.216,1.422-6.267c0.374-1.011,0.813-2.001,1.327-2.954
											c0.258-0.472,0.53-0.936,0.819-1.384c0.088-0.135,0.907-1.195,0.879-1.257c1.082,2.708,2.806,5.115,5.054,6.836
											c0.112,0.753,0.173,1.527-0.014,2.314c-0.028,0.112-0.06,0.229-0.096,0.343c-0.16,0.266-0.335,0.524-0.518,0.775
											c-0.572,0.801-1.161,1.585-1.705,2.403c-0.449,0.455-1.019,0.765-1.589,0.849c-0.462,0.065-0.915-0.013-1.378,0.097
											c-0.478,0.114-0.915,0.42-1.342,0.719c-0.176,0.12-0.367,0.264-0.432,0.471c0.324-0.517,0.935-0.744,1.471-0.771
											c0.536-0.027,1.056,0.092,1.598,0.055c0.331-0.021,0.689-0.129,0.983-0.327l-0.029,0.048
											c-0.284,0.483-0.547,0.997-0.668,1.532c-0.132,0.587-0.103,1.219-0.417,1.742c0.292-0.452,0.521-0.942,0.672-1.452
											c0.114-0.384,0.184-0.782,0.345-1.157c0.274-0.65,0.792-1.167,1.252-1.705c0.498-0.58,0.958-1.216,1.31-1.897
											c-0.254,0.985-0.209,2.002,0.113,2.849c-0.205-0.621-0.125-1.382,0.069-2.093c0.224-0.816,0.59-1.598,0.849-2.407
											c0.197-0.619,0.311-1.274,0.247-1.87c0.268,0.181,0.535,0.354,0.814,0.516c0,0,1.123,0.695,1.733,1.831
											c1.166,2.169-0.866,6.801-0.866,6.801c0.702-0.93,1.218-2.166,1.526-3.371c0.19,0.289,0.471,0.503,0.771,0.664
											c0.374,0.199,0.789,0.332,1.163,0.531c0.739,0.393,1.331,1.04,1.684,1.847c0.017-0.882-0.542-1.574-1.165-2.039
											c-0.625-0.473-1.351-0.812-1.877-1.407c-0.163-0.182-0.308-0.406-0.364-0.659c0.154-1.013,0.137-1.936-0.073-2.527
											c-0.076-0.22-0.199-0.437-0.34-0.645c0.846,0.095,1.855-0.307,2.673-0.036c0.518,0.176,0.893,0.602,1.25,1.023
											c-0.173-0.589-0.672-0.947-1.186-1.185c-0.61-0.282-1.276-0.45-1.974-0.488c-0.46-0.024-0.941-0.003-1.387-0.071
											c-0.477-0.493-0.93-0.831-0.93-0.831c-1.15-0.672-2.124-1.678-2.885-2.866c1.11-0.387,2.129-1.346,3.24-1.875
											c1.315-0.619,2.698-0.596,4.031-0.565c0.261,0.008,0.528,0.02,0.781,0.062c-1.427-0.47-2.95-0.823-4.485-0.226
											c-1.163,0.452-2.214,1.411-3.393,1.698c-0.221,0.054-0.447,0.074-0.663,0.054c-0.83-1.592-2.337-6.534-2.406-6.873
											c-0.014-0.009-1.356-0.815-2.251-1.444c-2.795,1.514-5.881,2.182-8.795,1.387c-0.393-0.352-0.724-0.785-1.003-1.25
											c-0.202-0.335-0.38-0.687-0.554-1.045c0.325-0.898,0.828-1.734,1.268-2.595c0.454-0.885,0.842-1.855,0.833-2.791
											c-0.623,1.598-1.436,3.134-2.415,4.557c-0.014,0.024-0.036,0.049-0.051,0.073c-0.127-0.264-0.25-0.525-0.383-0.78
											c-0.531-1.018-1.194-1.96-2.058-2.641c-0.864-0.682-1.948-1.094-3.106-1.007c1.26-0.096,2.379,0.551,3.167,1.477
											c0.575,0.676,0.997,1.486,1.365,2.334c-1.255-0.237-2.628-0.06-3.813-0.501c-0.425-0.158-0.816-0.394-1.253-0.521
											c-0.53-0.157-1.121-0.156-1.7,0.006c1.146-0.165,1.961,0.836,2.99,1.209c0.704,0.255,1.501,0.217,2.271,0.233
											c0.652,0.017,1.316,0.093,1.848,0.406c0.014,0.041,0.034,0.085,0.048,0.126c0.327,0.818,0.661,1.646,1.068,2.408
											c-1.774-0.303-4.866-0.674-6.815,0.049c-0.449,0.163-0.903,0.388-1.349,0.644c-0.88-0.147-1.719-0.426-2.575-0.656
											c-0.228-0.215-0.425-0.482-0.608-0.74c-0.602-0.847-1.293-1.676-2.246-2.036c0.438,0.438,0.872,0.874,1.311,1.312
											c0.179,0.178,0.357,0.357,0.493,0.574c0.145,0.223,0.243,0.483,0.354,0.73c-0.116-0.024-0.225-0.058-0.339-0.074
											c-1.351-0.25-2.918-0.13-4.164,0.808c0.716-0.488,1.578-0.604,2.335-0.478c0.87,0.142,1.638,0.551,2.433,0.893
											c0.532,0.229,1.093,0.431,1.682,0.5c-1.949,1.318-3.813,2.914-5.313,3.183c1.23-0.218,2.507-0.679,3.715-1.13
											c2.193-0.816,4.161-2.207,6.393-2.515c-0.632,1.159-0.998,2.459-1.636,3.628c-0.4,0.73-0.899,1.387-1.456,1.99
											c-0.693,0.126-1.419-0.116-2.13-0.143c-1.378-0.053-2.873,0.769-4.172,0.422c0.457,0.223,0.979,0.317,1.499,0.371
											c0.332,0.031,0.665,0.05,1.008,0.01c0.327-0.036,0.65-0.12,0.976-0.163c0.752-0.105,1.485-0.006,2.204,0.128
											c-0.842,0.794-1.78,1.479-2.716,2.106c1.412-0.478,2.769-1.395,3.849-2.608c0.306-0.347,0.591-0.712,0.864-1.091
											c0.165,0.287,0.129,0.705,0.052,1.092c-0.189,0.909-0.5,1.815-0.921,2.667c0.575-0.741,0.928-1.641,1.136-2.538
											c0.156-0.669,0.232-1.348,0.286-2.021c0.906-1.376,1.734-2.819,2.868-3.916c1.311,0.025,2.611,0.198,3.842,0.473
											c2.094,0.593,4.39,0.958,6.592,0.982c-0.077-0.001-1.08,1.938-1.208,2.139c-0.477,0.761-0.997,1.496-1.545,2.202
											c-1.089,1.389-2.304,2.664-3.615,3.797c-1.335,1.151-2.764,2.154-4.247,2.989c-1.324,0.743-2.879,1.729-4.304,1.623
											c-1.102-0.08-2.132-0.357-3.164-0.628c-0.789-2.007-2.279-3.55-4.111-4.405c-0.096-0.187-0.174-0.402-0.252-0.598
											c-0.821-1.91-3.29-2.386-4.027-4.349c0.302,1.411,1.437,2.28,2.447,3.14c0.206,0.176,0.414,0.359,0.556,0.599
											c0.148,0.251,0.229,0.571,0.35,0.845c-0.948-0.305-1.961-0.435-3.003-0.357c1.613,0.129,3.037,0.797,4.278,1.77
											c-1.86,0.531-3.754,0.602-5.487,0.187c1.396,0.672,3.075,0.659,4.715,0.493c0.423-0.043,0.861-0.103,1.275-0.262
											c0.862,0.771,1.624,1.688,2.28,2.671c-0.47-0.115-0.944-0.224-1.429-0.303c-0.68-0.111-2.549-0.246-4.686,0.022
											c-0.535-0.018-1.046-0.228-1.506-0.478c-0.508-0.28-0.995-0.605-1.537-0.795c-0.418-0.342-0.78-0.767-1.056-1.249
											c-0.231-0.404-0.405-0.851-0.708-1.189c-0.331-0.367-0.794-0.581-1.139-0.937c0.43,0.388,0.819,0.822,1.175,1.289
											c0.134,0.177,0.26,0.357,0.343,0.575c0.171,0.439,0.155,1.018,0.458,1.336c-1.353-0.063-2.845,0.495-4.075,0.021
											c0.581,0.537,1.473,0.556,2.298,0.47c0.83-0.083,1.693-0.243,2.441,0.025c0.348,0.125,0.651,0.333,0.967,0.51
											c0.421,0.24,0.868,0.438,1.338,0.585c-1.858,0.344-3.806,1.023-5.287,2.319c2.788-1.849,6.407-2.138,8.81-2.006
											c-0.172,0.155-0.333,0.317-0.484,0.492c-0.11,0.128-0.21,0.262-0.337,0.366c-0.178,0.145-0.389,0.225-0.59,0.311
											c-0.927,0.407-1.781,1.102-2.411,1.978c0.371-0.282,0.734-0.561,1.105-0.843c0.326-0.25,0.662-0.507,1.032-0.647
											c0.28-0.11,0.57-0.149,0.842-0.276c0.593-0.284,1.027-0.941,1.568-1.321c0.701,0.066,1.255,0.172,1.565,0.262
											c0.964,0.288,1.928,0.674,2.932,0.961c-1.703,0.962-3.515,1.587-5.31,1.827c1.964,0.269,4.151-0.343,6.003-1.65
											c0.464,0.104,0.939,0.189,1.421,0.22c1.478,0.093,3.036-0.173,4.535-0.656c3.1-0.995,6.126-2.979,8.535-5.58
											c0.533-0.573,1.036-1.182,1.499-1.822c-0.276,0.384-0.421,1.111-0.565,1.556c-0.179,0.546-0.335,1.098-0.472,1.65
											c-0.282,1.118-0.48,2.247-0.6,3.365c-0.248,2.283-0.151,4.488,0.208,6.626c0.254,1.524,0.519,2.996,1.268,4.139
											c-0.464,2.101-0.049,4.265,1.131,5.686c-0.669-1.45-0.862-3.215-0.558-4.973c0.161,0.155,0.333,0.311,0.528,0.44
											c0.924,0.646,2.322,1.047,3.684,2.228c0.056,0.48,0.096,0.964,0.057,1.451c-0.193,0.375-0.434,0.722-0.729,1.017
											c-0.249,0.251-0.522,0.469-0.773,0.712c-0.302,0.297-0.568,0.642-0.781,1.018c0.542-0.405,1.043-0.88,1.54-1.351
											c0.21-0.197,0.417-0.402,0.592-0.628c-0.154,0.548-0.407,1.088-0.414,1.64c-0.008,0.435,0.144,0.831,0.212,1.247
											c0.073,0.419,0.048,0.915-0.241,1.265c0.282-0.393,0.585-0.832,0.59-1.295c0.005-0.43-0.25-0.784-0.232-1.213
											c0.017-0.352,0.207-0.69,0.358-1.027c0.323-0.699,0.483-1.462,0.476-2.197c1.09,1.192,2.095,3.012,2.75,6.02
											c-0.05-0.684-0.13-1.307-0.247-1.882c0.478,0.242,0.952,0.482,1.43,0.724c0.534,0.269,1.085,0.542,1.705,0.547
											c-1.243-0.365-2.364-1.04-3.286-1.95c-0.15-0.594-0.331-1.124-0.537-1.604c0.576,0.101,1.157,0.185,1.753,0.155
											c0.408-0.02,0.826-0.098,1.23-0.088c0.162,0,0.318,0.023,0.473,0.045c0.558,0.445,1.05,0.967,1.461,1.57
											c0.227,0.337,0.434,0.694,0.72,0.976c0.286,0.282,0.663,0.476,1.081,0.418C244.645,213.02,244.213,212.669,243.89,212.223
											L243.89,212.223z"/>
									</g>
									<g id="XMLID_19_">
										<g id="XMLID_18_">
											<path id="XMLID_91_" style="fill:#4B90A0;" d="M249.112,158.624c0.702,0.422,0.903,1.352,0.466,2.078l-0.163,0.271
												c-0.437,0.727-1.357,0.982-2.054,0.563c0.702,0.422,0.906,1.347,0.469,2.074l-0.163,0.271
												c-0.437,0.727-1.357,0.982-2.054,0.563c0.702,0.422,0.906,1.347,0.469,2.074l-0.166,0.276
												c-0.434,0.722-1.354,0.977-2.051,0.558c0.702,0.422,0.903,1.352,0.469,2.074l-0.166,0.275
												c-0.434,0.722-1.355,0.977-2.051,0.558c0.702,0.422,0.903,1.352,0.469,2.074l-0.166,0.276
												c-0.437,0.727-1.355,0.977-2.051,0.558c0.702,0.422,0.903,1.352,0.466,2.078l-0.163,0.271
												c-0.437,0.727-1.355,0.977-2.051,0.558c0.702,0.422,0.903,1.352,0.466,2.078l-0.163,0.271
												c-0.437,0.727-1.357,0.982-2.054,0.563l-1.972-1.185c-0.702-0.422-0.903-1.352-0.466-2.078l0.163-0.271
												c0.437-0.727,1.357-0.982,2.054-0.563c-0.702-0.422-0.906-1.347-0.469-2.074l0.163-0.271
												c0.437-0.727,1.357-0.982,2.054-0.563c-0.702-0.422-0.906-1.347-0.469-2.074l0.166-0.276
												c0.434-0.722,1.355-0.977,2.051-0.559c-0.702-0.422-0.903-1.351-0.469-2.074l0.166-0.276
												c0.434-0.722,1.355-0.977,2.051-0.558c-0.702-0.422-0.903-1.352-0.469-2.074l0.166-0.275
												c0.437-0.727,1.354-0.977,2.051-0.558c-0.702-0.422-0.903-1.352-0.466-2.078l0.163-0.271
												c0.437-0.727,1.355-0.977,2.051-0.559c-0.702-0.422-0.903-1.351-0.466-2.078l0.163-0.271
												c0.437-0.727,1.357-0.982,2.054-0.563c-0.702-0.422-0.906-1.347-0.469-2.074l0.163-0.271
												c0.437-0.727,1.357-0.982,2.054-0.563l1.971,1.185c0.702,0.422,0.903,1.352,0.466,2.078l-0.163,0.271
												C250.731,158.796,249.814,159.046,249.112,158.624z"/>
										</g>
									</g>
								</g>
							</g>
							
								<rect x="262.47" y="165.681" transform="matrix(0.857 0.5153 -0.5153 0.857 125.3265 -114.3724)" style="fill:#4B90A0;" width="12.574" height="5.931"/>
						</g>
					</g>
					<g>
						<g>
							<path style="fill:#E8AA80;" d="M256.04,221.47c0.84-5.33,0.29-10.88-1.6-15.94c-0.35-0.94-0.99-2.03-1.99-1.97
								c-1.07,0.06-1.56,1.37-1.68,2.44c-0.32,2.9-0.15,5.88,0.84,8.5c-1.96,2.55-2.72,5.8-2.61,8.98
								C251.3,222.97,253.67,222.76,256.04,221.47z"/>
							<g>
								<polygon style="fill:#E8AA80;" points="255.6,221.12 259.24,229.85 248.43,239.89 245.98,230.21 								"/>
								<path style="fill:#E8AA80;" d="M253.14,211.27c1.01,2.29,3.29,5.76,3.29,5.76s-0.27,6.38-1.31,8.66
									c-1.84,4.04-7.01,6.2-11.12,4.95C246.93,224.19,249.87,217.72,253.14,211.27z"/>
							</g>
						</g>
						<g>
							<path style="fill:#FEFFFE;" d="M318.59,248.38l-3.61-19.71c0,0-11.28,4.09-14.12,6.45c-2.86,2.39-21.67,22.68-23.67,22.19
								c-2.89-0.7-17.95-32.42-17.95-32.42L244,240.35c0,0,16.77,49.26,26.04,50.13c9.27,0.86,44.29-19.16,44.29-19.16
								L318.59,248.38z"/>
							<g>
								<path style="fill:none;stroke:#E1E8F5;stroke-linecap:round;stroke-miterlimit:10;" d="M302.22,276.89
									c4.31-10.15,5.39-21.64,3.07-32.41"/>
								<path style="fill:none;stroke:#E1E8F5;stroke-linecap:round;stroke-miterlimit:10;" d="M304.93,275.83
									c3.68-3.41,6.16-8.1,6.91-13.07"/>
							</g>
							<polygon style="fill:#E1E8F5;" points="242.28,240.81 259.68,223.34 264.97,231.62 245.71,250.27 							"/>
						</g>
					</g>
				</g>
				<g>
					<path style="fill:#FEFFFE;" d="M303.53,237.91c0.97-5.81,19.8-12.82,19.8-12.82s7.32,13.8,7.32,31.54s-0.07,140.75-0.07,140.75
						l-36.13-2.46C294.45,394.92,298.64,267.31,303.53,237.91z"/>
					<path style="fill:#E1E8F5;" d="M330.65,277.14c0,0,0.92-17.51,0-28.94c-0.63-7.83-6.95-23.66-6.95-23.66s-4.78,1.5-7.47,2.76
						c-2.69,1.26-4.99,23.83-4.75,24.38c0.24,0.55,10.96,6.12,10.96,6.12s-7.07,7.3-7.02,8.1
						C315.48,266.7,330.65,277.14,330.65,277.14z"/>
					
						<rect x="302.117" y="367.127" transform="matrix(0.9923 -0.1235 0.1235 0.9923 -43.2088 41.5412)" style="fill:#E1E8F5;" width="22.689" height="4.32"/>
				</g>
				<g>
					<path style="fill:#FEFFFE;" d="M349.35,224.91c0,0,4.24,11.53,6.01,27.74c1.36,12.5-4.18,144.72-4.18,144.72l29.21-3.64
						c0,0-1.69-150.4-8.9-160.19C367.8,228.57,349.35,224.91,349.35,224.91z"/>
					<path style="fill:#E1E8F5;" d="M355.09,276.41c0,0,0.1-19.89-1-27.67c-1.11-7.78-5.47-23.85-5.47-23.85s7.37,0.42,10.05,1.68
						c2.69,1.26,11.32,21.21,11.08,21.75c-0.24,0.54-10.15,9.01-10.15,9.01s7.33,7.3,7.27,8.1
						C366.83,266.24,355.09,276.41,355.09,276.41z"/>
					<polygon style="fill:#E1E8F5;" points="376.96,370.01 376.72,365.75 358.61,364.67 358.85,368.94 					"/>
				</g>
			</g>
		</g>
		<g>
			<g>
				<g>
					<g>
						<polygon style="fill:#E8AA80;" points="604.68,314 596.9,327.28 591.12,318.48 588.46,314.44 587.57,313.08 596.8,307.26 
							597.81,308.13 599,309.14 						"/>
						<g>
							<g>
								<g>
									<path style="fill:#7BCCE0;" d="M587.33,301.27c0,6.76-5.17,12.25-11.55,12.25c-1.57,0-3.06-0.33-4.43-0.94
										c-0.02,0-0.04-0.01-0.06-0.02c-4.15-1.86-7.06-6.21-7.06-11.28c0-6.77,5.17-12.26,11.55-12.26c2.02,0,3.92,0.55,5.57,1.52
										C584.91,292.61,587.33,296.64,587.33,301.27z"/>
									<path style="fill:#51A9C9;" d="M587.33,301.27c0,6.76-5.17,12.25-11.55,12.25c-1.57,0-3.06-0.33-4.43-0.94
										c-0.02,0-0.04-0.01-0.06-0.02c-3.72-2.04-6.25-6.14-6.25-10.88c0-6.76,5.16-12.24,11.54-12.24c1.7,0,3.3,0.39,4.76,1.09
										C584.91,292.61,587.33,296.64,587.33,301.27z"/>
									<g>
										<polygon style="fill:#7BCCE0;" points="565.01,299.01 574.95,301.14 574.99,303.42 565.04,304.73 										"/>
										<polygon style="fill:#7BCCE0;" points="565.99,295.98 574.62,299.12 575.25,298.19 568.18,292.58 										"/>
									</g>
								</g>
								<g>
									<g>
										<path style="fill:#2C7FA3;" d="M576.7,296.39c-2.7,0-4.88,2.36-4.88,5.28c0,2.82,2.05,5.11,4.63,5.25v0.03h4.99
											l0.88-10.56C582.31,296.39,576.87,296.39,576.7,296.39z"/>
									</g>
									<circle style="fill:#6EB2C4;" cx="581.05" cy="301.67" r="5.28"/>
								</g>
							</g>
							<path style="fill:#E8AA80;" d="M588.68,314.4c-2.45,0.68-9.33-2.08-10.99-3.88c-1.85-2-2.72-4.25-0.99-4.92
								c0.85-0.33,2.35,0.61,5.48,0.22c1.05-4.43-1.62-7.68-1.97-9.58c-0.48-2.58,4.72-3.25,5.72-1.06
								c1.87-1.32,5.54-0.37,6.22,1.72c1.08-0.34,2.35-0.1,3.19,0.61c0.84,0.71,1.21,1.86,0.93,2.89c1.78,0.23,2.6,0.93,2.62,2.7
								c0.04,2.84-1.81,8.46-4.65,9.53C591.4,313.71,590.33,313.94,588.68,314.4z"/>
						</g>
					</g>
					<path style="fill:#D68163;" d="M604.68,314l-7.78,13.28l-5.78-8.79c2.26-4.21,5.46-7.36,7.88-9.35L604.68,314z"/>
				</g>
				<path style="fill:#E1E8F5;" d="M651.31,298.26l-9.07-15.84c0,0-4.91,2.3-8.75,8.38c-3.84,6.08-10.82,29.88-14.51,30.32
					c-3.68,0.44-18.81-14.5-18.81-14.5s-8.83,12.15-8.83,21.43c0,2.52,23.61,21.96,28.5,21.96c10.87,0,23.62-15.65,23.62-15.65
					L651.31,298.26z"/>
			</g>
			<g>
				<g>
					<path style="fill:#E8AA80;" d="M650.32,279.23c0,0,17.08,16.87,18.99,16.96c2.94,0.15,27.79-13.15,27.79-13.15
						s-7.7-4.51-10.14-6.61c-1.59-1.37-2.64-8.88-3.11-13.08c-0.37-3.24-0.55-5.79-0.55-5.79l-17.58-2.26c0,0-1.45,15.94-1.73,17.86
						c-0.18,1.24-0.37,2.18-0.54,2.62C662.49,278.22,650.32,279.23,650.32,279.23z"/>
					<path style="fill:#D68163;" d="M663.98,273.15c10.73,2,17.23-5.72,19.86-9.8c-0.37-3.24-0.55-5.79-0.55-5.79l-17.58-2.26
						c0,0-0.39,5.4-0.9,10.69C664.55,268.64,664.27,271.26,663.98,273.15z"/>
				</g>
				<g>
					<g>
						<path style="fill:#D68163;" d="M646.582,249.728c0.555-2.366,3.555-3.686,6.7-2.948c3.146,0.738,5.246,3.254,4.691,5.619
							c-0.555,2.366-3.555,3.686-6.7,2.948C648.128,254.61,646.028,252.094,646.582,249.728z"/>
						<g>
							<path style="fill:#1C5180;" d="M648.56,251.86c-0.23-0.91,0.38-1.86,1.39-2.21c0.08-0.04,0.16-0.06,0.25-0.08
								c0.61-0.15,1.2-0.06,1.67,0.2c0.27,0.96,0.38,1.92,0.4,2.64c-0.29,0.34-0.7,0.6-1.19,0.72c-0.11,0.03-0.21,0.04-0.32,0.06
								C649.72,253.3,648.78,252.74,648.56,251.86z"/>
						</g>
					</g>
					<g>
						<path style="fill:#E8AA80;" d="M687,244.49c0-12.74-6.38-23.61-16.54-23.61c-10.16,0-18.39,3.79-18.39,23.07
							c0,12.29,3.26,23.84,14.85,24.59C679.28,268.54,687,257.23,687,244.49z"/>
						<path style="fill:#D68163;" d="M684.62,250.09c-2.79-4.18-4.65-9.42-6.37-14.1c-7.71,1.06-15.58,0.92-23.28-0.5
							c-1.28,3.58-2.3,7.26-3.15,11.03c-1.09-5.78-0.59-11.86,1.4-17.08c10.19-2.34,20.68-3.37,31.49-3.13
							C684.86,233.62,684.46,241.75,684.62,250.09z"/>
					</g>
					<g>
						<path style="fill:#1D0100;" d="M689.62,223.73c-0.12-0.2-0.51-0.46-1.13-0.78c-5.16-2.68-25.91-9.17-28.62-7.85
							c-3.03,1.48,0.16,4.23,0.16,4.23s-9.99-1.08-11.75,1.25c-1.76,2.33,1.73,6.94,1.73,6.94s-2.59-0.34-3.33,1.56
							c-0.25,0.63,0.29,3.12,1.13,6.17c1.14,4.19,2.83,9.42,3.8,12.33c0.26-0.51,0.55-1,0.87-1.47c0.37-6.22,1.5-12.13,1.5-12.13
							c8.26,1.18,24.47-0.21,24.47-0.21l5.9,17.27h3.8C688.16,251.06,691.9,227.53,689.62,223.73z"/>
						<path style="fill:#360F0A;" d="M688.49,222.94c-6.33-2.15-12.86-3.68-19.49-4.53c-0.93-0.12-1.89-0.22-2.79,0
							c-0.91,0.22-1.79,0.82-2.08,1.71s0.23,2.03,1.35,3c-3.01-0.75-6.11-1.5-9.19-1.13c-1.73,0.21-3.55,0.89-4.41,2.39
							c-0.58,1-0.64,2.23-0.4,3.36c0.23,1.12,0.74,2.17,1.6,2.91c-1.75-0.84-3.93,0.46-4.73,2.23c-0.34,0.76-0.49,1.55-0.52,2.38
							c-0.84-3.05-1.38-5.54-1.13-6.17c0.74-1.9,3.33-1.56,3.33-1.56s-3.49-4.62-1.73-6.94c1.76-2.33,11.75-1.25,11.75-1.25
							s-3.2-2.75-0.16-4.23C662.58,213.77,683.32,220.26,688.49,222.94z"/>
					</g>
					<g>
						<path style="fill:none;stroke:#1D0100;stroke-linecap:round;stroke-miterlimit:10;" d="M677.91,244.13
							c-2.29-2.28-5.18-2.57-7.45-1.35"/>
						<path style="fill:none;stroke:#1D0100;stroke-linecap:round;stroke-miterlimit:10;" d="M654.52,243.1
							c1.95-2.01,4.22-1.99,5.89-0.52"/>
						<ellipse style="fill:#262E4A;" cx="668.49" cy="250.08" rx="1.1" ry="1.44"/>
						<ellipse style="fill:#262E4A;" cx="655.02" cy="250.08" rx="1.1" ry="1.44"/>
						<path style="fill:none;stroke:#CF5953;stroke-linecap:round;stroke-linejoin:round;stroke-miterlimit:10;" d="M662.5,250.82
							c0.09,1.42-0.58,2.88-1.78,3.81c0.35,0.9,0.91,1.7,1.62,2.32"/>
						<path style="fill:none;stroke:#CF5953;stroke-linecap:round;stroke-linejoin:round;stroke-miterlimit:10;" d="M664.01,260.15
							c0,0,3.24,0.44,7.37-3.03"/>
						<g>
							<circle style="fill:none;stroke:#6C3F91;stroke-miterlimit:10;" cx="671.38" cy="249.64" r="5.47"/>
							<path style="fill:none;stroke:#6C3F91;stroke-miterlimit:10;" d="M655.84,244.17c2.778,0,5.03,2.449,5.03,5.47
								s-2.252,5.47-5.03,5.47c-2.778,0-5.03-2.449-5.03-5.47S653.062,244.17,655.84,244.17z"/>
							<path style="fill:none;stroke:#6C3F91;stroke-miterlimit:10;" d="M666.3,247.68c-1.68-0.9-3.79-0.96-5.51-0.15"/>
							<path style="fill:none;stroke:#6C3F91;stroke-miterlimit:10;" d="M676.73,248.22c2.68-1.08,7.86-2.04,10.98-1.47"/>
						</g>
					</g>
					<g>
						<path style="fill:#E8AA80;" d="M685.667,246.343c3.154-0.98,6.325,0.201,7.082,2.637c0.757,2.437-1.186,5.207-4.34,6.187
							c-3.154,0.98-6.325-0.201-7.082-2.637C680.57,250.093,682.513,247.323,685.667,246.343z"/>
						<g>
							<path style="fill:#D68163;" d="M688.33,250.81c0.03,0.86-0.28,1.43-0.7,1.81c-0.71,0.65-1.68,0.75-1.68,0.75
								c-0.09-0.45-0.14-0.89-0.15-1.33c-0.03-1,0.1-1.96,0.25-2.66c0.15-0.75,0.32-1.23,0.32-1.23s0.76,0.14,1.34,0.84
								C688.03,249.4,688.3,249.97,688.33,250.81z"/>
							<path style="fill:#1C5180;" d="M689.52,250.81c0,0.93-0.82,1.72-1.88,1.81c-0.09,0.02-0.17,0.02-0.26,0.02
								c-0.63,0-1.18-0.23-1.58-0.6c-0.03-1,0.1-1.96,0.25-2.66c0.36-0.26,0.83-0.41,1.33-0.41c0.11,0,0.22,0.01,0.33,0.02
								C688.74,249.13,689.52,249.9,689.52,250.81z"/>
						</g>
					</g>
				</g>
			</g>
			<g>
				<path style="fill:#53AEDB;" d="M696.25,281.51l-7.14-4.87l-19.16,18.76c-2.54-3.51-7.48-9.28-8.41-18.36l-11.08,3l-3.55,82.08
					l48.66-1.44L696.25,281.51z"/>
				<g>
					<path style="fill:#78C8E3;" d="M669.91,295.41c6.49-6.49,14.19-15.53,16.59-19.96l3.44,1.19L687,295.47
						C682.88,293,676.75,292.47,669.91,295.41z"/>
					<path style="fill:#78C8E3;" d="M669.91,295.41c-2.05-3.86-6.09-13.46-7.32-19.15l-5.67,1.95l-0.49,16.31c0,0,3.71-1.8,6.76-1.2
						C666.25,293.92,669.91,295.41,669.91,295.41z"/>
				</g>
			</g>
			<polygon style="fill:#A1A7BF;" points="635.77,439.88 704.95,440.91 708.02,390.3 636.35,390 			"/>
			<g>
				<path style="fill:#FEFFFE;" d="M661.87,275.77c0,0-4.18,16.3-6.89,30.06c-2.93,14.9-5.23,29.49-8.08,54.86
					c-4.35,38.75,0,84.21,0,84.21l-16.24,0.69c0,0,1.7-151.28,8.95-161.12C643.31,279.45,661.87,275.77,661.87,275.77z"/>
				<path style="fill:#E1E8F5;" d="M662.54,275.46c0,0-5.46,24.12-7.17,32.93c-1.71,8.81-4.12,19.67-4.12,19.67
					s-9.85-12.26-8.84-14.25c1.01-1.99,7.36-6.48,7.36-6.48s-9.13-6.6-7.89-8.42c1.24-1.82,8.73-19.42,11.96-21.65
					C655.67,276,662.54,275.46,662.54,275.46z"/>
			</g>
			<g>
				<g>
					<rect x="644.37" y="463.37" style="fill:#89512C;" width="51.88" height="5.21"/>
					<g>
						<path style="fill:#5E2C1F;" d="M650.32,413.19c0,0.09,0,0.17-0.01,0.26l-0.47,6.66l-3.93,56.28c-0.14,2.02-1.93,3.56-4,3.42
							c-1.98-0.13-3.5-1.75-3.5-3.67c0-0.09,0-0.17,0.01-0.26l3.91-55.78l0.5-7.16c0.14-2.02,1.92-3.56,4-3.42
							C648.81,409.65,650.32,411.27,650.32,413.19z"/>
						<path style="fill:#451E18;" d="M650.32,413.19c0,0.09,0,0.17-0.01,0.26l-0.47,6.66h-7.51l0.5-7.16c0.14-2.02,1.92-3.56,4-3.42
							C648.81,409.65,650.32,411.27,650.32,413.19z"/>
					</g>
					<g>
						<path style="fill:#5E2C1F;" d="M674.98,413.12v63.08c0,1.01-0.41,1.93-1.1,2.6c-0.67,0.66-1.61,1.08-2.65,1.08
							c-2.08,0-3.75-1.65-3.75-3.68v-63.08c0-1.01,0.42-1.94,1.1-2.6c0.67-0.66,1.62-1.08,2.65-1.08
							C673.3,409.45,674.98,411.09,674.98,413.12z"/>
						<path style="fill:#451E18;" d="M674.98,413.12v6.98h-7.5v-6.98c0-1.01,0.42-1.94,1.1-2.6c0.67-0.66,1.62-1.08,2.65-1.08
							C673.3,409.45,674.98,411.09,674.98,413.12z"/>
					</g>
					<g>
						<path style="fill:#5E2C1F;" d="M703.05,476.13c0,1.92-1.51,3.54-3.49,3.67c-2.06,0.14-3.86-1.4-4-3.42l-3.93-56.28l-0.47-6.66
							c-0.01-0.09-0.01-0.17-0.01-0.26c0-1.92,1.51-3.54,3.49-3.67c2.06-0.14,3.86,1.4,4,3.42l0.5,7.16l3.9,55.78
							C703.05,475.96,703.05,476.05,703.05,476.13z"/>
						<path style="fill:#451E18;" d="M699.14,420.1h-7.51l-0.47-6.66c-0.01-0.09-0.01-0.17-0.01-0.26c0-1.92,1.51-3.54,3.49-3.67
							c2.06-0.14,3.86,1.4,4,3.42L699.14,420.1z"/>
					</g>
				</g>
				<path style="fill:#89512C;" d="M636.11,409.36v-5.63c0-2.86,2.32-5.18,5.18-5.18h56.48c2.86,0,5.18,2.32,5.18,5.18v5.63
					c0,2.86-2.32,5.18-5.18,5.18h-56.48C638.43,414.54,636.11,412.22,636.11,409.36z"/>
			</g>
			<g>
				<path style="fill:none;stroke:#15325E;stroke-miterlimit:10;" d="M650.59,252.93c0,0,6.18,30.03,16.87,30.03
					c9.75,0,17.29-17.72,19.54-30.57"/>
				<path style="fill:none;stroke:#15325E;stroke-linecap:round;stroke-miterlimit:10;" d="M667.27,285.46
					c-4.78,33.99-20.47,52.7-40.3,52.7c-24.36,0-46.82-25.62-46.82-25.62"/>
				<polygon style="fill:#2E5785;" points="666.04,286.35 666.5,283.18 668.49,283.26 667.98,286.64 				"/>
			</g>
			<g>
				<g>
					<g>
						<path style="fill:#448FC2;" d="M581.43,479.88l42.95-0.57c-0.13-1.38-0.32-2.66-0.55-3.86c-1.11-5.88-3.2-9.73-4.36-13.37
							l-4.44-2.01c0,0-5.78,2.17-19.15,6.08c-9.29,2.71-12.78,6.42-14.02,9.3C580.77,477.99,581.43,479.88,581.43,479.88z"/>
						<path style="fill:#ADCDDB;" d="M581.43,479.88l42.95-0.57c-0.13-1.38-0.32-2.66-0.55-3.86h-41.97
							C580.77,477.99,581.43,479.88,581.43,479.88z"/>
					</g>
					<path style="fill:#08183D;" d="M647.73,360.69c0,0-50.21,6.05-57.16,17.93c-6.94,11.88,7.51,86.05,7.51,86.05l24.72-0.13
						l-2.09-60.14l47.37-27.31L647.73,360.69z"/>
				</g>
				<g>
					<g>
						<path style="fill:#53AEDB;" d="M595.13,481.51l42.95-0.57c-0.13-1.38-0.32-2.66-0.55-3.86c-1.11-5.88-3.2-9.73-4.36-13.37
							l-4.44-2.01c0,0-5.78,2.17-19.15,6.08c-9.29,2.71-12.78,6.42-14.02,9.3C594.47,479.62,595.13,481.51,595.13,481.51z"/>
						<path style="fill:#CFF3FC;" d="M595.13,481.51l42.95-0.57c-0.13-1.38-0.32-2.66-0.55-3.86h-41.97
							C594.47,479.62,595.13,481.51,595.13,481.51z"/>
					</g>
					<path style="fill:#0F2752;" d="M699.94,360.07c0,0,5.02,36.14-3.81,39.49s-62.91,3.82-62.91,3.82l2.89,63.31h-24.93
						c0,0-13.38-73.12-3.29-84.82c10.1-11.7,49.16-11.01,48.53-11.17c-5.39-1.36-9.81-10.01-9.81-10.01L699.94,360.07z"/>
				</g>
				<g>
					<g>
						<path style="fill:#FEFFFE;" d="M710.13,287.02c-0.79-2.74-21.77-11.27-21.77-11.27S681,289.63,681,307.47
							s0.07,141.57,0.07,141.57l36.34-2.47C717.41,446.57,715.72,306.33,710.13,287.02z"/>
						<path style="fill:#E1E8F5;" d="M681,328.11c0,0-0.93-17.62,0-29.11c0.64-7.88,6.99-23.8,6.99-23.8s4.81,1.51,7.51,2.78
							c2.7,1.27,3.02,23.23,2.78,23.78c-0.24,0.55-9.02,6.89-9.02,6.89s7.11,7.34,7.06,8.15C696.26,317.61,681,328.11,681,328.11z"
							/>
						
							<rect x="696.076" y="409.379" transform="matrix(0.1235 -0.9923 0.9923 0.1235 194.4484 1061.725)" style="fill:#E1E8F5;" width="4.35" height="22.819"/>
					</g>
					<g>
						<g>
							<g>
								<path style="fill:#D68163;" d="M665.84,348.16c0,0-9.12,1.28-8.66,3.89c0.46,2.61,11.19,1.72,11.19,1.72L665.84,348.16z"/>
								<path style="fill:#E8AA80;" d="M672.43,342.73c-0.9-0.65-1.95-1.33-3.04-1.13c-0.75,0.14-1.35,0.68-1.92,1.19
									c-1.12,1.02-2.24,2.04-3.36,3.06c-1.23,1.12-2.52,2.34-2.88,3.97c-0.36,1.63,0.74,3.68,2.84,3.67
									c-0.39,0.85-0.31,1.91,0.22,2.69c0.53,0.77,1.48,1.23,2.58,1.27c-0.2,0.83,0.02,1.76,0.59,2.38
									c0.75,0.81,1.67,0.97,2.44,0.51c0.1,1.6,1.34,2.5,2.51,2.76c1.39,0.32,2.78-0.16,3.64-0.98c4.04,2.05,8.17-1.13,8.17-1.13
									s1.51-5.9,2.28-8.55C685.5,351.85,675.99,345.28,672.43,342.73z"/>
								<g>
									<path style="fill:none;stroke:#CF5953;stroke-linecap:round;stroke-linejoin:round;stroke-miterlimit:10;" d="
										M664.28,352.9c1.55-1.95,3.37-3.7,5.39-5.16"/>
									<path style="fill:none;stroke:#CF5953;stroke-linecap:round;stroke-linejoin:round;stroke-miterlimit:10;" d="
										M667.03,356.96c1.34-1.78,2.92-3.38,4.69-4.73"/>
									<path style="fill:none;stroke:#CF5953;stroke-linecap:round;stroke-linejoin:round;stroke-miterlimit:10;" d="
										M669.92,359.76c1-1.45,2.14-2.81,3.4-4.05"/>
									<path style="fill:none;stroke:#CF5953;stroke-linecap:round;stroke-linejoin:round;stroke-miterlimit:10;" d="
										M675.59,361.22c-0.63-0.41-1.06-1.1-1.16-1.85"/>
									<path style="fill:none;stroke:#CF5953;stroke-linecap:round;stroke-linejoin:round;stroke-miterlimit:10;" d="
										M674.83,360.69c-0.52,0.37-1.14,0.6-1.78,0.65"/>
								</g>
							</g>
							<polygon style="fill:#E8AA80;" points="682.95,350.8 692.62,350.02 694.66,362.56 681.68,362.12 							"/>
						</g>
						<path style="fill:#FEFFFE;" d="M698.01,307.53l6.06-24.59c0,0,10.95,6.47,12.78,9.03c3.63,5.07,22.74,58.6,16.72,64.62
							s-44.22,10.83-44.22,10.83l-3.74-17.4c0,0,23.22-3.65,23.08-6.83C708.54,340,698.01,307.53,698.01,307.53z"/>
						<g>
							<path style="fill:none;stroke:#E1E8F5;stroke-linecap:round;stroke-miterlimit:10;" d="M706.12,295.2
								c-3.27,9.33-3.77,19.61-1.18,29.32c1.35,4.88,3.2,9.63,5.61,14.79c-8.36,4.03-16.91,7.34-24.96,10.2"/>
							<path style="fill:none;stroke:#E1E8F5;stroke-linecap:round;stroke-miterlimit:10;" d="M688.5,363.2
								c0.56,1.82,0.85,3.23,1.65,5c8-1.05,16.73-2,24.42-4.46"/>
							<path style="fill:none;stroke:#E1E8F5;stroke-linecap:round;stroke-miterlimit:10;" d="M706.53,330.15
								c-3.24-1.09-6.04-3.42-7.68-6.42"/>
						</g>
					</g>
				</g>
			</g>
		</g>
		<g>
			<g>
				<circle style="fill:#82CED8;" cx="640.34" cy="179.12" r="35.8"/>
				<g>
					<path style="fill:#BA2F54;" d="M617.32,169.01c8.48-13.82,22.98,4.28,22.98,4.28s15.32-16.2,22.98-4.28
						c9.26,14.42-23.37,32.32-23.37,32.32S608.49,183.39,617.32,169.01z"/>
					<polyline style="fill:none;stroke:#FFF0F4;stroke-miterlimit:10;" points="607.99,182.52 626.66,182.52 629.54,171.05 
						635.33,194.11 640.34,165.99 644.54,191.19 651.09,175.39 653.94,182.57 669.17,182.57 					"/>
				</g>
			</g>
			<g>
				<circle style="fill:#82CED8;" cx="401.62" cy="105.65" r="35.8"/>
				<g>
					<g>
						<path style="fill:#941B3F;" d="M400.65,79.03c2.6-0.95,5.35-0.76,7.67,0.32c2.33,1.08,4.24,3.05,5.2,5.65l9.45,25.81
							c1.9,5.2-0.76,10.96-5.97,12.87c-5.2,1.9-10.96-0.77-12.87-5.97l-9.45-25.81C392.77,86.69,395.45,80.93,400.65,79.03z"/>
						<path style="fill:#EBE1E2;" d="M400.65,79.03c2.6-0.95,5.35-0.76,7.67,0.32c2.33,1.08,4.24,3.05,5.2,5.65l4.73,12.91
							l-18.84,6.9l-4.73-12.91C392.77,86.69,395.45,80.93,400.65,79.03z"/>
					</g>
					<g>
						<path style="fill:#BA2F54;" d="M377.25,96.33c1.96-1.96,4.53-2.94,7.09-2.94s5.13,0.98,7.09,2.94l19.44,19.44
							c3.91,3.91,3.92,10.27,0,14.18c-3.91,3.91-10.27,3.91-14.18,0l-19.44-19.44C373.34,106.6,373.34,100.25,377.25,96.33z"/>
						<path style="fill:#FFFFFF;" d="M377.25,96.33c1.96-1.96,4.53-2.94,7.09-2.94s5.13,0.98,7.09,2.94l9.72,9.72l-14.18,14.18
							l-9.72-9.72C373.34,106.6,373.34,100.25,377.25,96.33z"/>
					</g>
				</g>
			</g>
			<g>
				<circle style="fill:#82CED8;" cx="629.78" cy="69.85" r="35.8"/>
				<g>
					<path style="fill:#FFFFFF;" d="M649.25,49v26.22c0,5.53-2.73,10.7-7.31,13.81l-9.13,6.19c-0.91,0.62-1.98,0.88-3.04,0.76
						c-0.68-0.07-1.35-0.3-1.96-0.69l-9.83-6.31c-4.79-3.07-7.69-8.37-7.69-14.05V49H649.25z"/>
					<path style="fill:#EBE1E2;" d="M649.25,49v26.22c0,5.53-2.73,10.7-7.31,13.81l-9.13,6.19c-0.91,0.62-1.98,0.88-3.04,0.76V49
						H649.25z"/>
					<g>
						<rect x="617.92" y="67.11" style="fill:#BA2F54;" width="23.72" height="7.33"/>
						<rect x="626.122" y="58.916" style="fill:#BA2F54;" width="7.33" height="23.72"/>
					</g>
				</g>
			</g>
		</g>
	</g>
</g>
</svg>
